<svg preserveAspectRatio="none" width="100%" height="100%" overflow="visible" style="display: block;" viewBox="0 0 71.0952 53.0518" fill="none" xmlns="http://www.w3.org/2000/svg">
<g id="Group">
<path id="Vector" d="M4.85389 53.0518H16.1796V25.7947L0 13.6804V48.225C0 50.875 2.18901 53.0518 4.85389 53.0518Z" fill="var(--fill-0, #004634)"/>
<path id="Vector_2" d="M54.9156 53.0518H66.2413C68.9062 53.0518 71.0952 50.875 71.0952 48.225V13.6804L54.9156 25.7" fill="var(--fill-0, #004634)"/>
<path id="Vector_3" d="M54.9156 4.87862V25.7947L71.0952 13.775V7.24469C71.0952 1.28219 64.2426 -2.12495 59.4839 1.47148" fill="var(--fill-0, #003427)"/>
<path id="Vector_4" d="M16.1796 25.7947V4.87862L35.5952 19.359L54.9155 4.87862V25.7947L35.5 40.1804" fill="var(--fill-0, #004634)"/>
<path id="Vector_5" d="M0 7.24469V13.6804L16.1796 25.7001V4.87862L11.6113 1.47148C6.85255 -2.03031 0 1.37683 0 7.24469Z" fill="var(--fill-0, #003427)"/>
</g>
</svg>
