<svg width="28" height="28" viewBox="0 0 28 28" fill="none" xmlns="http://www.w3.org/2000/svg">
<g clip-path="url(#clip0_58922_255)">
<mask id="mask0_58922_255" style="mask-type:luminance" maskUnits="userSpaceOnUse" x="0" y="0" width="28" height="28">
<path d="M28 0H0V28H28V0Z" fill="white"/>
</mask>
<g mask="url(#mask0_58922_255)">
<path d="M11.8399 20.2372C8.23046 19.7906 5.68749 17.1388 5.68749 13.7055C5.68749 12.3098 6.17969 10.8025 7 9.79761C6.64454 8.87647 6.69923 6.92253 7.10937 6.11304C8.20311 5.97348 9.67969 6.55964 10.5547 7.36913C11.5937 7.03418 12.6875 6.86671 14.0273 6.86671C15.3672 6.86671 16.4609 7.03418 17.4453 7.34122C18.293 6.55964 19.7969 5.97348 20.8906 6.11304C21.2734 6.86671 21.3281 8.82064 20.9727 9.7697C21.8477 10.8304 22.3125 12.254 22.3125 13.7055C22.3125 17.1388 19.7695 19.7348 16.1055 20.2093C17.0351 20.8234 17.6641 22.1633 17.6641 23.6985V26.6015C17.6641 27.4389 18.3477 27.9134 19.168 27.5785C24.1172 25.6524 28 20.6001 28 14.3475C28 6.44799 21.7109 6.9603e-08 13.9727 0C6.23437 -6.9603e-08 6.81829e-08 6.44799 0 14.3475C-5.3486e-08 20.5443 3.85546 25.6803 9.05077 27.6064C9.78906 27.8855 10.5 27.3831 10.5 26.6294V24.3963C10.1172 24.5638 9.625 24.6755 9.18749 24.6755C7.3828 24.6755 6.3164 23.6706 5.55077 21.8004C5.25 21.0467 4.92189 20.6001 4.29297 20.5164C3.96486 20.4884 3.85546 20.3489 3.85546 20.1814C3.85546 19.8464 4.40234 19.5952 4.94923 19.5952C5.7422 19.5952 6.42577 20.0977 7.13671 21.1305C7.6836 21.94 8.2578 22.3028 8.9414 22.3028C9.625 22.3028 10.0625 22.0516 10.6914 21.4096C11.1563 20.935 11.5117 20.5164 11.8399 20.2372Z" fill="#004634"/>
</g>
</g>
<defs>
<clipPath id="clip0_58922_255">
<rect width="28" height="28" fill="white"/>
</clipPath>
</defs>
</svg>
