<svg width="28" height="28" viewBox="0 0 28 28" fill="none" xmlns="http://www.w3.org/2000/svg">
<g clip-path="url(#clip0_58922_271)">
<path d="M23.363 23.3931H19.3678V17.1282C19.3678 15.6343 19.3411 13.7112 17.2898 13.7112C15.209 13.7112 14.8906 15.3389 14.8906 17.0195V23.3927H10.8953V10.5096H14.7308V12.2702H14.7845C15.1683 11.613 15.723 11.0724 16.3894 10.706C17.0558 10.3395 17.809 10.1609 18.5687 10.1891C22.6181 10.1891 23.3647 12.8561 23.3647 16.3256L23.363 23.3931ZM6.38732 8.74853C5.92876 8.74861 5.48047 8.61254 5.09915 8.35752C4.71782 8.1025 4.42061 7.73998 4.24505 7.31581C4.0695 6.89164 4.02349 6.42487 4.11287 5.97453C4.20225 5.52418 4.423 5.11049 4.74719 4.78576C5.07138 4.46103 5.48446 4.23986 5.93419 4.1502C6.38391 4.06054 6.85009 4.10643 7.27377 4.28207C7.69745 4.4577 8.0596 4.75519 8.31443 5.13691C8.56926 5.51864 8.70533 5.96745 8.70541 6.42661C8.70546 6.73147 8.64554 7.03336 8.52907 7.31504C8.41261 7.59672 8.24189 7.85267 8.02664 8.06828C7.81138 8.28389 7.5558 8.45494 7.27453 8.57166C6.99326 8.68837 6.69179 8.74848 6.38732 8.74853ZM8.38495 23.3931H4.38552V10.5096H8.38495V23.3931ZM25.3548 0.390511H2.37791C1.8564 0.384618 1.35386 0.586281 0.980769 0.951185C0.607675 1.31609 0.394548 1.81438 0.388184 2.33656V25.4387C0.394331 25.9612 0.607332 26.4598 0.980413 26.8251C1.35349 27.1904 1.85614 27.3924 2.37791 27.3869H25.3548C25.8776 27.3934 26.3817 27.192 26.7563 26.8267C27.1308 26.4614 27.3452 25.9622 27.3525 25.4387V2.3349C27.345 1.81168 27.1304 1.31282 26.7559 0.947925C26.3813 0.58303 25.8774 0.381943 25.3548 0.388844" fill="#004634"/>
</g>
<defs>
<clipPath id="clip0_58922_271">
<rect width="28" height="28" fill="white"/>
</clipPath>
</defs>
</svg>
