<svg preserveAspectRatio="none" width="100%" height="100%" overflow="visible" style="display: block;" viewBox="0 0 1494 888" fill="none" xmlns="http://www.w3.org/2000/svg">
<g id="Group 7">
<path id="Vector 16" d="M1224.92 744L1168 722.645L1209.11 657L1285 687.845L1224.92 744Z" fill="var(--fill-0, #F3F293)"/>
<path id="Vector 14" d="M1113 256.969L1218.34 446L1407 425.522L1384.2 197.109L1180.6 64L1113 256.969Z" fill="var(--fill-0, #F3F293)"/>
<path id="Vector 13" d="M1163 433.155L1007.25 474L975 225L1085.13 233.64L1163 433.155Z" fill="var(--fill-0, #F3F293)"/>
<path id="Vector 11" d="M879.308 533L715 533L845.503 3L920.975 31.3507L965 398.334L879.308 533Z" fill="var(--fill-0, #F3F293)"/>
<path id="Vector 10" d="M689.011 846L590.362 728.411L573 557.946L803.443 554L865 761.557L689.011 846Z" fill="var(--fill-0, #F3F293)"/>
<path id="Vector 9" d="M741.47 271L689 219.025L726.59 145L754 154.45L741.47 271Z" fill="var(--fill-0, #F3F293)"/>
<path id="Vector 5" d="M573 773.873L300 888L526.582 559L573 773.873Z" fill="var(--fill-0, #F3F293)"/>
<path id="Vector 4" d="M452.293 600L400 568.312L444.488 539L496 563.558L452.293 600Z" fill="var(--fill-0, #F3F293)"/>
<path id="Vector 3" d="M366.555 568L316 530.8L338.908 506L350.756 506L410 525.375L366.555 568Z" fill="var(--fill-0, #F3F293)"/>
<path id="Vector 2" d="M286.323 862L20 763.524L20 550.817L277.656 539L425 626.446L286.323 862Z" fill="var(--fill-0, #F3F293)"/>
<path id="Vector 1" d="M303.347 510.918L6.28698 518L1.83917e-06 363.77L289.987 230L356 408.623L356 433.016L303.347 510.918Z" fill="var(--fill-0, #F3F293)"/>
<path id="Vector 6" d="M664.209 524L390.508 496.456L370 263.514L647.645 210L721 332.767L664.209 524Z" fill="var(--fill-0, #F3F293)"/>
<path id="Vector 7" d="M508 200.089C470.454 205.059 394.89 215 393 215L456.801 153L508 200.089Z" fill="var(--fill-0, #F3F293)"/>
<path id="Vector 8" d="M678 156.169L533 168L601.189 8.13148e-07L678 156.169Z" fill="var(--fill-0, #F3F293)"/>
<path id="Vector 12" d="M1012.72 805L890.717 744.5L849 557.5L1107.96 475L1130 706L1012.72 805Z" fill="var(--fill-0, #F3F293)"/>
<path id="Vector 15" d="M1313.37 677C1268.08 663.077 1176.4 635.23 1172 635.23L1196.35 488.643L1424.1 465L1494 604.494L1494 623.409L1435.88 677L1313.37 677Z" fill="var(--fill-0, #F3F293)"/>
</g>
</svg>
