<svg preserveAspectRatio="none" width="100%" height="100%" overflow="visible" style="display: block;" viewBox="0 0 39.0625 17.6624" fill="none" xmlns="http://www.w3.org/2000/svg">
<g id="Group">
<path id="Vector" d="M9.96095 17.6624H35.8117V10.509L30.9008 7.69283L30.0537 7.32662L9.96095 7.46451V17.6624Z" fill="var(--fill-0, white)"/>
<path id="Vector_2" d="M26.8701 16.7126C27.1106 15.8887 27.0191 15.1331 26.6188 14.5715C26.2525 14.0563 25.6336 13.7585 24.8902 13.7243L10.7971 13.5413C10.7056 13.5413 10.6262 13.4948 10.5799 13.4264C10.5335 13.3581 10.5225 13.2678 10.5457 13.1751C10.5921 13.0372 10.7288 12.9346 10.8777 12.9235L25.0965 12.7405C26.7811 12.6598 28.6121 11.2975 29.2518 9.6276L30.0647 7.50982C30.1006 7.42271 30.109 7.32701 30.0891 7.23502C29.1736 3.09082 25.4748 0 21.0559 0C16.9787 0 13.5242 2.63307 12.2864 6.28658C11.4844 5.69088 10.4553 5.37115 9.36647 5.47369C7.40846 5.669 5.82643 7.23639 5.64577 9.19439C5.59833 9.68131 5.63298 10.1727 5.74831 10.6481C4.20796 10.6899 2.74487 11.3317 1.67102 12.4368C0.597156 13.5419 -0.00245339 15.0229 7.54533e-06 16.5637C7.54533e-06 16.8493 0.0244217 17.1374 0.0573904 17.4219C0.0818045 17.5598 0.19532 17.6624 0.332039 17.6624H26.3428C26.4176 17.661 26.49 17.6358 26.5496 17.5907C26.6094 17.5454 26.6531 17.4825 26.6748 17.4108L26.8701 16.7126Z" fill="var(--fill-0, #F38020)"/>
<path id="Vector_3" d="M31.3574 7.65631L30.9668 7.66842C30.8752 7.66842 30.7959 7.73678 30.7592 7.82721L30.21 9.73873C29.9695 10.5628 30.0609 11.3184 30.4613 11.8799C30.8275 12.395 31.4465 12.6928 32.1899 12.727L35.1893 12.9102C35.2807 12.9102 35.3602 12.9565 35.4065 13.0249C35.4529 13.0932 35.4639 13.1958 35.4406 13.2764C35.3943 13.4143 35.2576 13.5169 35.1086 13.5278L31.9836 13.711C30.2893 13.7915 28.468 15.1538 27.8283 16.8237L27.5988 17.4073C27.5525 17.5219 27.633 17.6368 27.7576 17.6368H38.4961C38.5582 17.6376 38.619 17.6178 38.6686 17.5805C38.7184 17.5432 38.7543 17.4903 38.7707 17.4303C38.9611 16.7534 39.0592 16.0536 39.0625 15.3503C39.0566 13.3098 38.2426 11.3546 36.7986 9.91275C35.3545 8.47096 33.3981 7.66002 31.3574 7.65748" fill="var(--fill-0, #FAAE40)"/>
</g>
</svg>
