<svg preserveAspectRatio="none" width="100%" height="100%" overflow="visible" style="display: block;" viewBox="0 0 26.042 39.0625" fill="none" xmlns="http://www.w3.org/2000/svg">
<g id="Group">
<path id="Vector" d="M6.51071 39.0625C10.1045 39.0625 13.0211 36.1459 13.0211 32.5522V26.0416H6.51071C2.91696 26.0416 0.00027814 28.9584 0.00027814 32.5522C0.00027814 36.1459 2.91696 39.0625 6.51071 39.0625Z" fill="var(--fill-0, #0ACF83)"/>
<path id="Vector_2" d="M0.00027814 19.5313C0.00027814 15.9375 2.91696 13.0208 6.51071 13.0208H13.0211V26.0416H6.51071C2.91696 26.0416 0.00027814 23.125 0.00027814 19.5313Z" fill="var(--fill-0, #A259FF)"/>
<path id="Vector_3" d="M9.3321e-05 6.51041C9.3321e-05 2.91666 2.91677 0 6.51052 0H13.0209V13.0208H6.51052C2.91677 13.0208 9.3321e-05 10.1042 9.3321e-05 6.51041Z" fill="var(--fill-0, #F24E1E)"/>
<path id="Vector_4" d="M13.0211 0H19.5315C23.1252 0 26.042 2.91666 26.042 6.51041C26.042 10.1042 23.1252 13.0208 19.5315 13.0208H13.0211V0Z" fill="var(--fill-0, #FF7262)"/>
<path id="Vector_5" d="M26.042 19.5313C26.042 23.125 23.1252 26.0416 19.5315 26.0416C15.9377 26.0416 13.0211 23.125 13.0211 19.5313C13.0211 15.9375 15.9377 13.0208 19.5315 13.0208C23.1252 13.0208 26.042 15.9375 26.042 19.5313Z" fill="var(--fill-0, #1ABCFE)"/>
</g>
</svg>
