<svg preserveAspectRatio="none" width="100%" height="100%" overflow="visible" style="display: block;" viewBox="0 0 50 50" fill="none" xmlns="http://www.w3.org/2000/svg">
<g id="Frame">
<path id="Vector" d="M25 28.8656C27.1574 28.8656 28.9062 27.1167 28.9062 24.9594C28.9062 22.802 27.1574 21.0531 25 21.0531C22.8426 21.0531 21.0938 22.802 21.0938 24.9594C21.0938 27.1167 22.8426 28.8656 25 28.8656Z" fill="var(--fill-0, #004634)"/>
<path id="Vector_2" d="M25 33.9156C20.3049 34.0288 15.6216 33.3959 11.125 32.0406C9.04785 31.3822 7.11052 30.3449 5.41094 28.9813C4.76217 28.5156 4.22191 27.915 3.82731 27.2208C3.43271 26.5265 3.19312 25.755 3.125 24.9594C3.125 22.3766 5.9625 19.8453 10.7156 18.1891C15.3327 16.7227 20.1562 16.0115 25 16.0828C29.7792 16.0167 34.5382 16.7151 39.0969 18.1516C41.097 18.79 42.9685 19.7771 44.625 21.0672C45.2618 21.512 45.7933 22.0911 46.182 22.7635C46.5708 23.436 46.8073 24.1856 46.875 24.9594C46.875 27.6438 43.7031 30.3641 38.5938 32.0547C34.1843 33.3662 29.5997 33.9938 25 33.9156ZM25 17.9516C20.3659 17.891 15.7516 18.5671 11.3297 19.9547C6.95469 21.4813 4.99375 23.5688 4.99375 24.9547C4.99375 26.4047 7.10156 28.6844 11.7297 30.2672C16.0313 31.5578 20.5103 32.1585 25 32.0469C29.4006 32.1256 33.7874 31.5301 38.0078 30.2813C42.8125 28.6891 45 26.4063 45 24.9594C44.9209 24.4629 44.7398 23.9883 44.4682 23.5653C44.1966 23.1423 43.8404 22.7801 43.4219 22.5016C41.9401 21.3566 40.2682 20.4818 38.4828 19.9172C34.1217 18.5491 29.5702 17.8855 25 17.9516Z" fill="var(--fill-0, #F3F293)"/>
<path id="Vector_3" d="M16.125 44.4422C15.3961 44.4588 14.6758 44.282 14.0375 43.9297C11.8 42.6391 11.025 38.9172 11.9641 33.9719C13.0006 29.2396 14.7946 24.7057 17.2766 20.5453C19.6064 16.3724 22.5883 12.5987 26.1094 9.36719C27.6617 7.95329 29.4517 6.82499 31.3969 6.03438C32.1008 5.70553 32.8683 5.53511 33.6453 5.53511C34.4223 5.53511 35.1898 5.70553 35.8937 6.03438C38.2203 7.375 38.9906 11.4813 37.9047 16.7516C36.8375 21.2275 35.0901 25.5133 32.7234 29.4594C30.4758 33.5832 27.5878 37.324 24.1672 40.5422C22.559 42.0122 20.6927 43.1718 18.6625 43.9625C17.8499 44.2649 16.9919 44.4271 16.125 44.4422ZM18.8953 21.4734C16.528 25.4574 14.8086 29.7921 13.8016 34.3156C12.9375 38.8703 13.7672 41.6094 14.9734 42.3063C16.2234 43.0297 19.2578 42.3438 22.9422 39.125C26.208 36.0423 28.9646 32.4614 31.1094 28.5156C33.3765 24.743 35.0526 20.6455 36.0797 16.3656C37.1016 11.4047 36.2187 8.36719 34.9656 7.64531C34.4959 7.46564 33.994 7.38523 33.4917 7.40916C32.9893 7.4331 32.4974 7.56085 32.0469 7.78438C30.3152 8.49915 28.7231 9.51364 27.3437 10.7813C23.9799 13.8769 21.1316 17.4895 18.9062 21.4828L18.8953 21.4734Z" fill="var(--fill-0, #F3F293)"/>
<path id="Vector_4" d="M33.8703 44.4625C31.7531 44.4625 29.0641 43.1812 26.2641 40.7734C22.6817 37.5121 19.6494 33.6937 17.2844 29.4656C14.833 25.3628 13.0532 20.8944 12.0125 16.2297C11.5622 14.1772 11.4786 12.0613 11.7656 9.97969C11.8331 9.20775 12.0686 8.45992 12.4557 7.78864C12.8427 7.11735 13.372 6.53887 14.0062 6.09375C16.3297 4.74844 20.2719 6.13125 24.2953 9.70313C27.64 12.8628 30.4803 16.5167 32.7172 20.5375C35.1673 24.5445 36.9657 28.915 38.0453 33.4859C38.5158 35.6136 38.5884 37.81 38.2594 39.9641C38.1814 40.7585 37.9324 41.5267 37.5294 42.2158C37.1265 42.905 36.5791 43.4987 35.925 43.9563C35.2969 44.3035 34.5879 44.4782 33.8703 44.4625ZM18.9016 28.525C21.1705 32.5655 24.0671 36.2199 27.4828 39.3516C30.9969 42.375 33.7844 43.025 34.9828 42.3203C36.2328 41.5937 37.1547 38.6281 36.2047 33.8297C35.1642 29.4654 33.4392 25.2935 31.0937 21.4688C28.9591 17.6205 26.248 14.1217 23.0547 11.0938C19.2672 7.73125 16.1953 6.97969 14.9438 7.70469C14.5539 8.02188 14.2339 8.41637 14.004 8.8633C13.7741 9.31024 13.6392 9.79994 13.6078 10.3016C13.3596 12.158 13.4405 14.0436 13.8469 15.8719C14.8482 20.3328 16.5551 24.6052 18.9031 28.5281L18.9016 28.525Z" fill="var(--fill-0, #F3F293)"/>
</g>
</svg>
